<svg width="196" height="196" viewBox="0 0 196 196" fill="none" xmlns="http://www.w3.org/2000/svg">
<mask id="mask0_1029_205" style="mask-type:alpha" maskUnits="userSpaceOnUse" x="0" y="0" width="196" height="196">
<rect width="196" height="196" fill="#D9D9D9"/>
</mask>
<g mask="url(#mask0_1029_205)">
<!-- <rect width="196" height="196" fill="#F3F3F3"/> -->
<path d="M66.2993 92.6422C66.2993 92.6422 67.6993 96.0422 67.9993 97.4422C67.9993 97.5422 67.9993 97.5422 67.9993 97.6422C68.0993 98.8422 66.5993 99.3422 65.9993 98.3422C65.9993 98.3422 65.8993 98.2422 65.8993 98.1422C65.5993 97.4422 65.2993 96.3422 63.7993 92.3422C61.9993 87.5422 62.4993 84.4422 65.6993 84.2422L65.8993 83.7422C66.4993 84.4422 67.0993 85.3422 67.3993 86.4422C67.4993 86.9422 67.5993 87.3422 67.6993 87.9422C67.9993 91.7422 66.2993 92.6422 66.2993 92.6422Z" fill="white"/>
<path d="M107.2 134.544C107.2 134.544 120.1 134.644 126.9 115.944C133.1 98.9438 133.9 84.9438 130.4 79.9438C128.9 77.8438 126.4 74.9438 123.9 72.3438C120.4 68.5438 117.1 65.2438 117.1 65.2438L117 67.8438C117 67.8438 99.4004 61.5438 94.1004 55.5438C94.0004 55.3438 92.4004 52.2438 91.9004 49.8438C91.9004 49.8438 101.4 57.7438 111.7 60.8438L110 57.0438C110 57.0438 117.8 61.7437 126.3 64.1437L125.4 57.9438C125.4 57.9438 131.7 66.9437 141.3 73.6437C141.3 73.6437 141.1 79.0437 141.2 84.7437C141.2 85.3437 141.2 85.9437 141.3 86.6437C141.6 95.3438 141.7 98.2438 136.7 110.344C134.8 114.844 132.6 118.844 130.1 122.144C124.2 130.044 117 134.344 110.7 134.844C109.5 134.944 108.3 134.944 107.2 134.844V134.544Z" fill="white"/>
<path d="M64.2999 78.0426C66.9999 78.9426 68.5999 83.0426 69.4999 85.9426L67.3999 86.4426C67.0999 85.3426 66.4999 84.4426 65.8999 83.7426L65.6999 84.2426C62.4999 84.4426 61.8999 87.5426 63.7999 92.3426C65.2999 96.3426 65.5999 97.4426 65.8999 98.1426C65.8999 98.2426 65.9999 98.2426 65.9999 98.3426L64.9999 98.6426C63.4999 96.7426 61.8999 94.1426 60.4999 90.9426C57.6999 84.4426 59.2999 78.5426 62.5999 77.9426C63.1999 77.8426 63.6999 77.8426 64.2999 78.0426Z" fill="white"/>
<path d="M78.0992 128.944C75.4992 129.244 71.6992 130.544 69.7992 131.844C69.4992 132.044 68.5992 132.844 67.3992 133.944C62.8992 137.944 53.7992 146.444 50.9992 149.044C50.2992 147.844 49.6992 146.844 49.2992 146.144C48.8992 145.444 48.6992 145.144 48.6992 145.144C48.6992 145.144 58.3992 137.244 63.2992 132.244C68.1992 127.344 71.2992 126.044 77.8992 125.844H78.0992C77.9992 126.944 77.9992 128.044 78.0992 128.944Z" fill="white"/>
<path d="M72.9008 140.443C71.0008 138.143 69.5008 136.143 68.2008 134.043L67.3008 133.943C68.5008 132.843 69.4008 132.043 69.7008 131.843C71.6008 130.543 75.4008 129.243 78.0008 128.943C78.0008 129.143 78.0008 129.443 78.0008 129.643C75.0008 130.943 73.8008 131.543 73.8008 134.043C73.8008 135.943 73.2008 140.243 73.2008 140.243L72.9008 140.443Z" fill="white"/>
<path d="M188.099 179.142C191.299 185.242 194.399 194.242 197.099 202.942C196.499 201.542 186.599 179.242 179.899 172.142C171.199 162.942 156.599 157.842 156.599 157.842C156.399 157.542 156.199 157.242 155.999 156.942C154.999 154.542 153.999 152.342 153.199 150.742C166.499 159.442 178.899 161.242 188.099 179.142Z" fill="white"/>
<path d="M128.199 169.943C136.699 163.543 140.499 162.543 145.499 162.543C149.999 162.543 155.299 166.043 158.699 168.743L162.199 179.743C152.199 165.043 135.199 165.043 126.199 174.743C126.699 173.043 127.399 171.443 128.199 169.943Z" fill="black"/>
<path d="M97.8992 164.343C105.299 168.043 125.699 168.643 131.899 159.443H132.099C131.899 160.443 131.599 161.443 131.299 162.543C130.599 165.243 129.299 167.643 128.199 169.943C127.399 171.543 126.699 173.043 126.199 174.743C125.999 175.543 125.799 176.343 125.699 177.143C125.499 178.643 125.399 184.043 125.399 190.843C123.699 178.143 126.199 167.743 126.199 167.743C121.699 170.443 111.899 171.343 106.899 170.143C106.899 170.143 109.099 172.043 108.299 181.543C107.299 193.743 107.999 231.043 107.999 231.043V231.443H103.599V231.043C103.299 212.043 103.599 201.543 103.999 192.243C104.599 177.443 105.199 176.143 103.599 172.243C102.899 170.443 101.399 168.443 99.2992 166.243C98.7992 165.643 98.1992 165.143 97.6992 164.543L97.8992 164.343Z" fill="black"/>
<path d="M97.7 133.543C102 138.143 116.5 144.643 125.3 143.443L125.5 143.643C122.8 145.643 118.4 147.443 111.5 147.643C81.8 148.243 78.1 134.043 78.1 134.043C78.1 134.043 78.1 132.243 78.1 129.643C78.1 129.443 78.1 129.243 78.1 128.943C78.1 127.943 78 126.943 78 125.843C77.9 122.643 77.6 119.043 77 116.143C80.5 121.243 88.6 128.943 98.1 132.643L97.7 133.543Z" fill="white"/>
<path d="M130.101 84.5426C130.201 82.9426 128.901 81.5426 127.301 81.4426C125.701 81.3426 124.301 82.6426 124.201 84.2426C124.101 85.8426 125.401 87.2426 127.001 87.3426C128.601 87.3426 130.001 86.1426 130.101 84.5426ZM68.0008 97.3426C67.7008 95.9426 66.3008 92.5426 66.3008 92.5426C66.3008 92.5426 68.0008 91.7426 67.7008 87.8426C67.7008 87.3426 67.6008 86.8426 67.4008 86.3426L69.5008 85.8426C70.0008 87.5426 70.2008 88.9426 70.2008 88.9426C71.1008 82.6426 70.1008 73.3426 70.1008 73.3426C71.1008 65.9426 73.9008 60.5426 73.9008 60.5426L74.4008 63.6426C75.9008 59.3426 79.9008 54.0426 85.1008 48.1426C85.1008 48.1426 88.6008 53.2426 94.0008 55.4426C99.2008 61.4426 116.901 67.7426 116.901 67.7426L117.001 65.1426C117.001 65.1426 120.301 68.4426 123.801 72.2426C126.301 74.9426 128.801 77.8426 130.301 79.8426C133.901 84.8426 133.001 98.8426 126.801 115.843C120.001 134.543 107.101 134.443 107.101 134.443V134.643C104.001 134.443 101.001 133.643 98.0008 132.543C88.5008 128.843 80.4008 121.143 76.9008 116.043C76.7008 115.843 76.6008 115.543 76.4008 115.343C73.7008 111.143 71.9008 106.343 70.9008 101.643C70.6008 100.143 70.3008 98.6426 70.2008 97.2426L68.0008 97.5426C68.0008 97.4426 68.0008 97.4426 68.0008 97.3426ZM96.6008 82.8426C96.7008 81.1426 95.4008 79.6426 93.7008 79.6426C92.0008 79.5426 90.5008 80.8426 90.4008 82.5426C90.3008 84.2426 91.6008 85.7426 93.3008 85.7426C95.0008 85.8426 96.5008 84.5426 96.6008 82.8426Z" fill="white"/>
<path d="M66.0004 98.2422C66.6004 99.1422 68.2004 98.6422 68.0004 97.5422L70.2004 97.2422C70.4004 98.7422 70.6004 100.142 70.9004 101.642L70.1004 101.842C68.5004 101.742 66.7004 100.542 64.9004 98.4422L66.0004 98.2422Z" fill="white"/>
<path d="M130.001 131.442C131.101 134.242 135.601 148.242 114.901 150.742C86.6008 154.142 74.2008 139.042 73.8008 134.142C73.8008 131.642 75.0008 131.042 78.0008 129.742H78.1008C78.1008 132.342 78.1008 134.142 78.1008 134.142C78.1008 134.142 81.8008 148.342 111.501 147.742C118.401 147.642 122.801 145.842 125.501 143.742C129.501 140.742 130.101 137.142 130.101 137.142C130.101 137.142 130.001 134.642 130.001 131.442Z" fill="black"/>
<path d="M204.8 230.943V231.343H125.7C125.7 227.943 125.4 205.843 125.4 190.843C125.4 184.043 125.5 178.643 125.7 177.143C125.8 176.343 126 175.543 126.2 174.743C135.2 165.043 152.2 165.043 162.2 179.743L158.7 168.743C160.8 170.443 162.2 171.843 162.2 171.843C162.2 171.843 159 163.743 156.1 157.043C156.3 157.343 156.5 157.643 156.7 157.943C156.7 157.943 171.3 163.043 180 172.243C186.7 179.343 196.6 201.643 197.2 203.043V203.143C201.6 217.243 204.8 230.943 204.8 230.943Z" fill="white"/>
<path d="M162.199 171.742C162.199 171.742 160.799 170.342 158.699 168.642C155.299 165.942 150.099 162.442 145.499 162.442C140.499 162.442 136.699 163.542 128.199 169.842C129.299 167.542 130.599 165.142 131.299 162.442C131.599 161.342 131.799 160.342 132.099 159.342C134.499 149.342 134.999 142.942 134.999 139.542C134.999 135.842 132.499 131.542 130.099 131.042C130.099 130.042 130.099 128.842 130.099 127.742C135.199 129.842 141.799 137.042 156.099 156.842C158.899 163.642 162.199 171.742 162.199 171.742Z" fill="white"/>
<path d="M153.2 150.743C154 152.343 155 154.643 156 156.943C141.7 137.243 135.1 130.043 130 127.843C130 127.443 130 127.043 130 126.543C134.3 127.743 136.3 128.843 140.5 133.343C145.3 138.543 149.8 144.443 152.2 148.843C152.5 149.343 152.8 149.943 153.2 150.743Z" fill="white"/>
<path d="M152.201 54.8428L149.201 52.2428C149.201 52.2428 149.801 60.3428 148.501 65.2428C147.701 68.3428 148.201 70.1428 148.201 70.1428L145.901 66.9428C145.901 66.9428 144.801 76.1428 145.901 78.0428C141.701 74.8428 143.901 63.8428 143.901 63.8428L145.701 63.9428C146.901 57.7428 146.501 48.7428 146.501 48.7428L148.201 49.7428C144.401 36.0428 129.201 18.2428 110.401 17.2428C92.5008 16.3428 81.3008 24.6428 81.3008 24.6428C76.8008 26.1428 66.0008 32.5428 58.8008 42.1428C61.0008 38.8428 66.2008 28.3428 78.3008 22.4428C78.3008 22.4428 91.1008 14.0428 102.901 13.1428C117.801 12.0428 131.501 17.1428 144.201 33.8428C150.701 42.3428 152.201 54.8428 152.201 54.8428Z" fill="white"/>
<path d="M148.3 49.7432L146.6 48.7432C146.6 48.7432 147 57.7432 145.8 63.9432L144 63.8432C144 63.8432 141.8 74.8432 146 78.0432L144.2 76.7432C144.2 76.7432 143.3 82.2432 141.3 84.6432H141.1C141 78.9432 141.2 73.5432 141.2 73.5432C131.6 66.8432 125.3 57.8432 125.3 57.8432L126.2 64.0432C117.7 61.7432 109.9 56.9432 109.9 56.9432L111.6 60.7432C101.2 57.7432 91.8004 49.7432 91.8004 49.7432C92.3004 52.1432 93.9004 55.2432 94.0004 55.4432C88.6004 53.2432 85.1004 48.1432 85.1004 48.1432C79.8004 54.0432 75.8004 59.4432 74.4004 63.6432L73.9004 60.5432C73.9004 60.5432 71.1004 65.9432 70.1004 73.3432C70.1004 73.3432 71.1004 82.6432 70.2004 88.9432C70.2004 88.9432 70.0004 87.6432 69.5004 85.8432C68.6004 82.9432 67.0004 78.8432 64.3004 77.9432C63.7004 77.7432 63.1004 77.6432 62.6004 77.7432L62.5004 77.2432C62.5004 77.2432 62.1004 72.8432 60.5004 68.4432C58.9004 64.0432 58.7004 56.0432 58.7004 56.0432L56.9004 56.8432C58.8004 43.9432 61.3004 41.8432 61.3004 41.8432L58.6004 42.6432C58.7004 42.5432 58.8004 42.3432 59.0004 42.1432C59.0004 42.1432 59.0004 42.0432 59.1004 42.0432C66.3004 32.4432 77.1004 26.0432 81.6004 24.5432C81.6004 24.5432 92.8004 16.1432 110.7 17.1432C129.3 18.2432 144.5 36.0432 148.3 49.7432Z" fill="black"/>
<path d="M135 139.643C135 143.043 134.5 149.443 132.1 159.443H131.9C125.7 168.743 105.3 168.143 97.9004 164.343L97.8004 164.443C94.1004 160.743 89.2004 156.443 84.3004 151.943C79.2004 147.243 75.7004 143.643 72.9004 140.443L73.1004 140.243C73.1004 140.243 73.7004 135.943 73.7004 134.043C74.2004 139.043 86.5004 154.043 114.8 150.643C135.5 148.143 131 134.143 129.9 131.343C129.9 131.243 129.9 131.143 129.9 131.043C132.5 131.543 135 135.943 135 139.643Z" fill="black"/>
<path d="M127.301 81.3433C128.901 81.4433 130.201 82.8433 130.101 84.4433C130.001 86.0433 128.601 87.3433 127.001 87.2433C125.401 87.1433 124.101 85.7433 124.201 84.1433C124.301 82.5433 125.701 81.2433 127.301 81.3433Z" fill="black"/>
<path d="M130 131.443C130 134.643 130 137.143 130 137.143C130 137.143 129.4 140.743 125.4 143.743L125.2 143.543C116.4 144.643 101.9 138.143 97.5996 133.643L97.8996 132.743C100.8 133.843 103.9 134.643 107 134.843C108.2 134.943 109.4 134.943 110.5 134.843C116.7 134.343 124 130.043 129.9 122.143C129.8 123.443 129.8 125.143 129.8 126.843C129.8 127.243 129.8 127.643 129.8 128.143C129.8 129.243 129.8 130.343 129.8 131.443C130 131.243 130 131.343 130 131.443Z" fill="black"/>
<path d="M126.347 231H107.197V230.592C107.197 230.592 106.435 192.531 107.523 180.082C108.394 170.388 106 168.449 106 168.449C111.332 169.673 122.104 168.755 127 166C127 166 124.389 176.612 126.13 189.571C126.021 204.98 126.238 227.531 126.347 231Z" fill="black"/>
<path d="M103.7 172.142C105.3 176.142 104.7 177.342 104.1 192.142C103.7 201.442 103.5 211.942 103.7 230.942V231.342H-5.60001L-6 231.142C-2.2 215.642 0.6 202.242 4 191.242C15 165.042 25.8 163.242 50 149.842C50 149.842 50.2 149.642 50.6 149.242L73.3 192.842C73.3 192.842 82.3 169.542 97.5 166.842V166.542C98.1 166.442 98.6 166.442 99.2 166.442L99.4 166.242C101.4 168.342 103 170.342 103.7 172.142Z" fill="white"/>
<path d="M99.4004 166.144L99.2004 166.344C98.6004 166.344 98.1004 166.444 97.5004 166.444C82.8004 168.044 71.9004 185.344 71.9004 185.344C67.1004 177.144 55.7004 157.344 50.9004 148.944C53.7004 146.344 62.8004 137.844 67.3004 133.844L68.2004 133.944C69.5004 136.044 71.0004 138.044 72.9004 140.344C75.6004 143.544 79.2004 147.144 84.3004 151.844C89.2004 156.344 94.1004 160.644 97.8004 164.344C98.3004 165.044 98.9004 165.644 99.4004 166.144Z" fill="white"/>
<path d="M97.4996 166.543V166.843C82.2996 169.543 73.2996 192.843 73.2996 192.843L50.5996 149.243C50.6996 149.243 50.6996 149.143 50.7996 149.043C55.6996 157.443 66.9996 177.243 71.7996 185.443C71.8996 185.343 82.7996 168.143 97.4996 166.543Z" fill="black"/>
<path d="M93.5999 79.6421C95.2999 79.7421 96.5999 81.1421 96.4999 82.8421C96.3999 84.5421 94.9999 85.8421 93.2999 85.7421C91.5999 85.6421 90.2999 84.2421 90.3999 82.5421C90.4999 80.8421 91.8999 79.5421 93.5999 79.6421Z" fill="black"/>
<path d="M50.6996 149.143C50.2996 149.543 50.0996 149.743 50.0996 149.743C25.8996 163.143 15.0996 164.943 4.09961 191.143C6.79961 182.443 9.7996 175.343 13.8996 169.843C22.3996 158.443 43.5996 150.043 49.2996 146.043C49.6996 146.743 50.2996 147.743 50.9996 148.943C50.7996 149.043 50.6996 149.143 50.6996 149.143Z" fill="white"/>
<path d="M62.3008 81.8418C63.4008 81.8418 64.8008 82.4418 66.0008 83.6418C66.6008 84.3418 67.2008 85.2418 67.5008 86.3418C67.6008 86.8418 67.7008 87.2418 67.8008 87.8418C68.2008 91.7418 66.4008 92.5418 66.4008 92.5418C66.4008 92.5418 67.8008 95.9418 68.1008 97.3418C68.1008 97.4418 68.1008 97.4418 68.1008 97.5418C68.2008 98.7418 66.7008 99.2418 66.1008 98.2418C66.1008 98.2418 66.0008 98.1418 66.0008 98.0418C65.7008 97.3418 65.4008 96.2418 63.9008 92.2418C62.1008 87.4418 62.6008 84.3418 65.8008 84.1418" stroke="black" stroke-width="1.5" stroke-miterlimit="10" stroke-linecap="round" stroke-linejoin="round"/>
<path d="M101.801 113.342C107.001 115.742 114.401 116.542 118.201 114.542" stroke="black" stroke-width="2" stroke-miterlimit="10" stroke-linecap="round" stroke-linejoin="round"/>
<path d="M58.9004 42.2424C61.1004 38.9424 66.3004 28.4424 78.4004 22.5424C78.4004 22.5424 91.2004 14.1424 103 13.2424C117.9 12.1424 131.6 17.2424 144.3 33.9424C150.7 42.3424 152.2 54.8424 152.2 54.8424L149.2 52.2424C149.2 52.2424 149.8 60.3424 148.5 65.2424C147.7 68.3424 148.2 70.1424 148.2 70.1424L145.9 66.9424C145.9 66.9424 144.8 76.1424 145.9 78.0424L144.1 76.7424C144.1 76.7424 143.2 82.2424 141.2 84.6424" stroke="black" stroke-width="2" stroke-miterlimit="10" stroke-linecap="round" stroke-linejoin="round"/>
<path d="M62.5004 77.3434C62.5004 77.3434 62.1004 72.9434 60.5004 68.5434C58.9004 64.1434 58.7004 56.1434 58.7004 56.1434L56.9004 56.9434C58.8004 44.0434 61.3004 41.9434 61.3004 41.9434L58.6004 42.7434C58.7004 42.6434 58.8004 42.4434 59.0004 42.2434" stroke="black" stroke-width="2" stroke-miterlimit="10" stroke-linecap="round" stroke-linejoin="round"/>
<path d="M94.0009 55.4426C88.5009 53.2426 85.1009 48.1426 85.1009 48.1426C79.8009 54.0426 75.8009 59.4426 74.4009 63.6426L73.9009 60.5426C73.9009 60.5426 71.1009 65.9426 70.1009 73.3426C70.1009 73.3426 71.1009 82.6426 70.2009 88.9426C70.2009 88.9426 70.0009 87.6426 69.5009 85.8426C68.6009 82.9426 67.0009 78.8426 64.3009 77.9426C63.7009 77.7426 63.1009 77.6426 62.6009 77.7426C59.4009 78.3426 57.7009 84.1426 60.5009 90.7426C61.9009 93.9426 63.4009 96.5426 65.0009 98.4426C66.7009 100.543 68.5009 101.743 70.2009 101.843" stroke="black" stroke-width="2" stroke-miterlimit="10" stroke-linecap="round" stroke-linejoin="round"/>
<path d="M77 116.142C80.5 121.242 88.6 128.942 98.1 132.642C101 133.742 104.1 134.542 107.2 134.742C108.4 134.842 109.6 134.842 110.7 134.742C116.9 134.242 124.2 129.942 130.1 122.042C132.6 118.742 134.8 114.842 136.7 110.242C141.7 98.1422 141.6 95.2422 141.3 86.5422C141.3 85.9422 141.3 85.3422 141.2 84.6422C141.1 78.9422 141.3 73.5422 141.3 73.5422C131.7 66.8422 125.4 57.8422 125.4 57.8422L126.3 64.0422C117.8 61.7422 110 56.9422 110 56.9422L111.7 60.7422C101.3 57.7422 91.9 49.7422 91.9 49.7422C92.4 52.1422 94 55.2422 94.1 55.4422" stroke="black" stroke-width="2" stroke-miterlimit="10" stroke-linecap="round" stroke-linejoin="round"/>
<path d="M70 93.8418C70 94.9418 70.1 96.1418 70.3 97.3418C70.5 98.8418 70.7 100.242 71 101.742C72 106.442 73.8 111.242 76.5 115.442C76.6 115.642 76.8 115.842 77 116.142" stroke="black" stroke-width="2" stroke-miterlimit="10" stroke-linecap="round" stroke-linejoin="round"/>
<path d="M103.201 72.442C97.8008 69.042 88.4008 68.242 80.8008 72.142" stroke="black" stroke-width="2.5" stroke-miterlimit="10" stroke-linecap="round" stroke-linejoin="round"/>
<path d="M121 73.4427C121.8 72.9427 122.7 72.5427 123.8 72.2427C127.9 71.2427 133.7 72.1427 137.1 75.1427" stroke="black" stroke-width="2.5" stroke-miterlimit="10" stroke-linecap="round" stroke-linejoin="round"/>
<path d="M112.5 80.6426C113.3 89.3426 117.4 93.2426 116.5 98.1426C115.6 103.043 111.2 104.043 108.1 104.543" stroke="black" stroke-width="2" stroke-miterlimit="10" stroke-linecap="round" stroke-linejoin="round"/>
<path d="M130 131.442C130 131.342 130 131.242 130 131.142C130 130.142 130 128.942 130 127.842C130 127.442 130 127.042 130 126.542C130 124.842 130 123.242 130.1 121.842" stroke="black" stroke-width="2" stroke-miterlimit="10" stroke-linecap="round" stroke-linejoin="round"/>
<path d="M77 116.143C77.6 118.943 77.9 122.543 78 125.843C78 126.943 78.1 128.043 78.1 128.943C78.1 129.143 78.1 129.443 78.1 129.643C78.1 132.243 78.1 134.043 78.1 134.043C78.1 134.043 81.8 148.243 111.5 147.643C118.4 147.543 122.8 145.743 125.5 143.643C129.5 140.643 130.1 137.043 130.1 137.043C130.1 137.043 130.1 134.543 130.1 131.343" stroke="black" stroke-width="2" stroke-miterlimit="10" stroke-linecap="round" stroke-linejoin="round"/>
<path d="M77.9992 129.643C74.9992 130.943 73.7992 131.543 73.7992 134.043C73.7992 135.943 73.1992 140.243 73.1992 140.243" stroke="black" stroke-width="2" stroke-miterlimit="10" stroke-linecap="round" stroke-linejoin="round"/>
<path d="M130.001 131.143C132.501 131.543 134.901 135.843 134.901 139.643C134.901 143.043 134.401 149.443 132.001 159.443C131.801 160.443 131.501 161.443 131.201 162.543C130.501 165.243 129.201 167.643 128.101 169.943C127.301 171.543 126.601 173.043 126.101 174.743C125.901 175.543 125.701 176.343 125.601 177.143C125.401 178.643 125.301 184.043 125.301 190.843C125.301 205.843 125.501 227.943 125.601 231.343C125.601 231.643 125.601 231.743 125.601 231.743" stroke="black" stroke-width="2" stroke-miterlimit="10" stroke-linecap="round" stroke-linejoin="round"/>
<path d="M158.6 168.643C155.2 165.943 150 162.443 145.4 162.443C140.4 162.443 136.6 163.543 128.1 169.843" stroke="black" stroke-width="2" stroke-miterlimit="10" stroke-linecap="round" stroke-linejoin="round"/>
<path d="M130 126.643C134.3 127.843 136.3 128.943 140.5 133.443C145.3 138.643 149.8 144.543 152.2 148.943C152.5 149.443 152.8 150.043 153.1 150.743C153.9 152.343 154.9 154.643 155.9 156.943C158.8 163.643 162 171.743 162 171.743C162 171.743 160.6 170.343 158.5 168.643" stroke="black" stroke-width="2" stroke-miterlimit="10" stroke-linecap="round" stroke-linejoin="round"/>
<path d="M153.199 150.742C166.499 159.442 178.899 161.342 188.099 179.242C191.299 185.342 194.399 194.342 197.099 203.042" stroke="black" stroke-width="2" stroke-miterlimit="10" stroke-linecap="round" stroke-linejoin="round"/>
<path d="M77.7996 125.842C71.2996 126.042 68.1996 127.242 63.1996 132.242C58.2996 137.142 48.5996 145.142 48.5996 145.142C48.5996 145.142 48.7996 145.542 49.1996 146.142C49.5996 146.842 50.1996 147.842 50.8996 149.042C55.7996 157.442 67.0996 177.242 71.8996 185.442C71.8996 185.442 82.7996 168.242 97.4996 166.542C98.0996 166.442 98.5996 166.442 99.1996 166.442" stroke="black" stroke-width="2" stroke-miterlimit="10" stroke-linecap="round" stroke-linejoin="round"/>
<path d="M68.1992 134.043C69.4992 136.143 70.9992 138.143 72.8992 140.443C75.5992 143.643 79.1992 147.243 84.2992 151.943C89.1992 156.443 94.0992 160.743 97.7992 164.443C98.3992 165.043 98.8992 165.543 99.3992 166.143C101.499 168.343 102.999 170.343 103.699 172.143C105.299 176.143 104.699 177.343 104.099 192.143C103.699 201.443 103.499 211.943 103.699 230.943" stroke="black" stroke-width="2" stroke-miterlimit="10" stroke-linecap="round" stroke-linejoin="round"/>
<path d="M4 191.242C0.6 202.242 -2.2 215.642 -6 231.142" stroke="black" stroke-width="2" stroke-miterlimit="10" stroke-linecap="round" stroke-linejoin="round"/>
<path d="M49.2 146.043C43.5 150.043 22.3 158.443 13.8 169.843C9.7 175.343 6.7 182.443 4 191.143" stroke="black" stroke-width="2" stroke-miterlimit="10" stroke-linecap="round" stroke-linejoin="round"/>
<path d="M97.9004 164.343C105.3 168.043 125.7 168.643 131.9 159.443" stroke="black" stroke-width="2" stroke-miterlimit="10" stroke-linecap="round" stroke-linejoin="round"/>
<path d="M58.5 42.7426C58.6 42.5426 58.7 42.4426 58.9 42.2426C58.9 42.2426 58.9 42.1426 59 42.1426" stroke="black" stroke-width="2" stroke-miterlimit="10" stroke-linecap="round" stroke-linejoin="round"/>
<circle cx="130" cy="131.443" r="1" fill="black"/>
<circle cx="158.6" cy="168.643" r="1" fill="black"/>
</g>
</svg>
